<svg xmlns="http://www.w3.org/2000/svg" style="display:none">
<symbol id="i-storefront" viewBox="0 0 256 256"><path d="M236,96a12,12,0,0,0-.44-3.3L221.2,42.51A20.08,20.08,0,0,0,202,28H54A20.08,20.08,0,0,0,34.8,42.51L20.46,92.7A12,12,0,0,0,20,96h0v16a43.94,43.94,0,0,0,16,33.92V216a12,12,0,0,0,12,12H208a12,12,0,0,0,12-12V145.92A43.94,43.94,0,0,0,236,112V96ZM57.05,52H199l9.14,32H47.91Zm91,56v4a20,20,0,0,1-40,0v-4ZM53,128.71A20,20,0,0,1,44,112v-4H84v4a20,20,0,0,1-20,20,19.76,19.76,0,0,1-9.07-2.2A11.54,11.54,0,0,0,53,128.71ZM196,204H60V155.81c1.32.12,2.65.19,4,.19a43.86,43.86,0,0,0,32-13.85,43.89,43.89,0,0,0,64,0A43.86,43.86,0,0,0,192,156c1.35,0,2.68-.07,4-.19Zm16-92a20,20,0,0,1-9,16.71,11.66,11.66,0,0,0-1.88,1.09A20,20,0,0,1,172,112v-4h40Z"/></symbol>
<symbol id="i-gear-six" viewBox="0 0 256 256"><path d="M128,76a52,52,0,1,0,52,52A52.06,52.06,0,0,0,128,76Zm0,80a28,28,0,1,1,28-28A28,28,0,0,1,128,156Zm113.86-49.57A12,12,0,0,0,236,98.34L208.21,82.49l-.11-31.31a12,12,0,0,0-4.25-9.12,116,116,0,0,0-38-21.41,12,12,0,0,0-9.68.89L128,37.27,99.83,21.53a12,12,0,0,0-9.7-.9,116.06,116.06,0,0,0-38,21.47,12,12,0,0,0-4.24,9.1l-.14,31.34L20,98.35a12,12,0,0,0-5.85,8.11,110.7,110.7,0,0,0,0,43.11A12,12,0,0,0,20,157.66l27.82,15.85.11,31.31a12,12,0,0,0,4.25,9.12,116,116,0,0,0,38,21.41,12,12,0,0,0,9.68-.89L128,218.73l28.14,15.74a12,12,0,0,0,9.7.9,116.06,116.06,0,0,0,38-21.47,12,12,0,0,0,4.24-9.1l.14-31.34,27.81-15.81a12,12,0,0,0,5.85-8.11A110.7,110.7,0,0,0,241.86,106.43Zm-22.63,33.18-26.88,15.28a11.94,11.94,0,0,0-4.55,4.59c-.54,1-1.11,1.93-1.7,2.88a12,12,0,0,0-1.83,6.31L184.13,199a91.83,91.83,0,0,1-21.07,11.87l-27.15-15.19a12,12,0,0,0-5.86-1.53h-.29c-1.14,0-2.3,0-3.44,0a12.08,12.08,0,0,0-6.14,1.51L93,210.82A92.27,92.27,0,0,1,71.88,199l-.11-30.24a12,12,0,0,0-1.83-6.32c-.58-.94-1.16-1.91-1.7-2.88A11.92,11.92,0,0,0,63.7,155L36.8,139.63a86.53,86.53,0,0,1,0-23.24l26.88-15.28a12,12,0,0,0,4.55-4.58c.54-1,1.11-1.94,1.7-2.89a12,12,0,0,0,1.83-6.31L71.87,57A91.83,91.83,0,0,1,92.94,45.17l27.15,15.19a11.92,11.92,0,0,0,6.15,1.52c1.14,0,2.3,0,3.44,0a12.08,12.08,0,0,0,6.14-1.51L163,45.18A92.27,92.27,0,0,1,184.12,57l.11,30.24a12,12,0,0,0,1.83,6.32c.58.94,1.16,1.91,1.7,2.88A11.92,11.92,0,0,0,192.3,101l26.9,15.33A86.53,86.53,0,0,1,219.23,139.61Z"/></symbol>
<symbol id="i-megaphone" viewBox="0 0 256 256"><path d="M252,120a52.06,52.06,0,0,0-52-52H160.32c-3.44-.21-52.6-4-99.46-43.3A20,20,0,0,0,28,40V200a19.8,19.8,0,0,0,11.54,18.12,19.86,19.86,0,0,0,21.32-2.81A192.92,192.92,0,0,1,144,174.47v26.2a20,20,0,0,0,8.9,16.64,11.35,11.35,0,0,0,1.39.8l14.44,7.06A20,20,0,0,0,198.37,213l11.09-41.82A52.07,52.07,0,0,0,252,120ZM52,191.63V48.4c36.17,28.07,72.17,38.1,92,41.66V150C124.17,153.52,88.17,163.55,52,191.63ZM176.39,202.2,168,198.1V172h16.4ZM200,148H168V92h32a28,28,0,1,1,0,56Z"/></symbol>
<symbol id="i-handshake" viewBox="0 0 256 256"><path d="M253.88,108.11l-25.53-51a20,20,0,0,0-26.83-9L178.34,59.7,131.7,44.58a12.14,12.14,0,0,0-7.4,0L77.66,59.7,54.48,48.11a20,20,0,0,0-26.83,9L2.12,108.11a20,20,0,0,0,9,26.83l26.67,13.34,51.18,37.41A12.15,12.15,0,0,0,93,187.62l62,16a12.27,12.27,0,0,0,3,.38,12,12,0,0,0,8.48-3.52l52.62-52.62,25.83-12.92a20,20,0,0,0,8.95-26.83Zm-58.12,29.15-27.52-26a12,12,0,0,0-16.76.26c-9.66,9.74-25.06,16.81-40.81,9.55l38.19-37h22.72l25.81,51.63ZM47.32,71.37,60.59,78l-22,43.9-13.27-6.63Zm107,107.3L101.23,165l-42-30.66L85.17,82.5,128,68.61l1.69.55L90,107.68l-.13.12a20,20,0,0,0,3.4,31c20.95,13.39,46,12.07,66.33-2.73l19.2,18.15Zm63-56.77-22-43.9,13.27-6.63,21.95,43.9ZM118.55,219a12,12,0,0,1-14.62,8.62l-26.6-6.87a12,12,0,0,1-4.08-1.93L48.92,201a12,12,0,0,1,14.16-19.37l22.47,16.42,24.38,6.29A12,12,0,0,1,118.55,219Z"/></symbol>
<symbol id="i-seal-check" viewBox="0 0 256 256"><path d="M228.75,100.05c-3.52-3.67-7.15-7.46-8.34-10.33-1.06-2.56-1.14-7.83-1.21-12.47-.15-10-.34-22.44-9.18-31.27s-21.27-9-31.27-9.18c-4.64-.07-9.91-.15-12.47-1.21-2.87-1.19-6.66-4.82-10.33-8.34C148.87,20.46,140.05,12,128,12s-20.87,8.46-27.95,15.25c-3.67,3.52-7.46,7.15-10.33,8.34-2.56,1.06-7.83,1.14-12.47,1.21C67.25,37,54.81,37.14,46,46S37,67.25,36.8,77.25c-.07,4.64-.15,9.91-1.21,12.47-1.19,2.87-4.82,6.66-8.34,10.33C20.46,107.13,12,116,12,128S20.46,148.87,27.25,156c3.52,3.67,7.15,7.46,8.34,10.33,1.06,2.56,1.14,7.83,1.21,12.47.15,10,.34,22.44,9.18,31.27s21.27,9,31.27,9.18c4.64.07,9.91.15,12.47,1.21,2.87,1.19,6.66,4.82,10.33,8.34C107.13,235.54,116,244,128,244s20.87-8.46,27.95-15.25c3.67-3.52,7.46-7.15,10.33-8.34,2.56-1.06,7.83-1.14,12.47-1.21,10-.15,22.44-.34,31.27-9.18s9-21.27,9.18-31.27c.07-4.64.15-9.91,1.21-12.47,1.19-2.87,4.82-6.66,8.34-10.33C235.54,148.87,244,140.05,244,128S235.54,107.13,228.75,100.05Zm-17.32,39.29c-4.82,5-10.28,10.72-13.19,17.76-2.82,6.8-2.93,14.16-3,21.29-.08,5.36-.19,12.71-2.15,14.66s-9.3,2.07-14.66,2.15c-7.13.11-14.49.22-21.29,3-7,2.91-12.73,8.37-17.76,13.19C135.78,214.84,130.4,220,128,220s-7.78-5.16-11.34-8.57c-5-4.82-10.72-10.28-17.76-13.19-6.8-2.82-14.16-2.93-21.29-3-5.36-.08-12.71-.19-14.66-2.15s-2.07-9.3-2.15-14.66c-.11-7.13-.22-14.49-3-21.29-2.91-7-8.37-12.73-13.19-17.76C41.16,135.78,36,130.4,36,128s5.16-7.78,8.57-11.34c4.82-5,10.28-10.72,13.19-17.76,2.82-6.8,2.93-14.16,3-21.29C60.88,72.25,61,64.9,63,63s9.3-2.07,14.66-2.15c7.13-.11,14.49-.22,21.29-3,7-2.91,12.73-8.37,17.76-13.19C120.22,41.16,125.6,36,128,36s7.78,5.16,11.34,8.57c5,4.82,10.72,10.28,17.76,13.19,6.8,2.82,14.16,2.93,21.29,3,5.36.08,12.71.19,14.66,2.15s2.07,9.3,2.15,14.66c.11,7.13.22,14.49,3,21.29,2.91,7,8.37,12.73,13.19,17.76,3.41,3.56,8.57,8.94,8.57,11.34S214.84,135.78,211.43,139.34ZM176.49,95.51a12,12,0,0,1,0,17l-56,56a12,12,0,0,1-17,0l-24-24a12,12,0,1,1,17-17L112,143l47.51-47.52A12,12,0,0,1,176.49,95.51Z"/></symbol>
<symbol id="i-check-circle" viewBox="0 0 256 256"><path d="M176.49,95.51a12,12,0,0,1,0,17l-56,56a12,12,0,0,1-17,0l-24-24a12,12,0,1,1,17-17L112,143l47.51-47.52A12,12,0,0,1,176.49,95.51ZM236,128A108,108,0,1,1,128,20,108.12,108.12,0,0,1,236,128Zm-24,0a84,84,0,1,0-84,84A84.09,84.09,0,0,0,212,128Z"/></symbol>
<symbol id="i-map-pin" viewBox="0 0 256 256"><path d="M128,60a44,44,0,1,0,44,44A44.05,44.05,0,0,0,128,60Zm0,64a20,20,0,1,1,20-20A20,20,0,0,1,128,124Zm0-112a92.1,92.1,0,0,0-92,92c0,77.36,81.64,135.4,85.12,137.83a12,12,0,0,0,13.76,0,259,259,0,0,0,42.18-39C205.15,170.57,220,136.37,220,104A92.1,92.1,0,0,0,128,12Zm31.3,174.71A249.35,249.35,0,0,1,128,216.89a249.35,249.35,0,0,1-31.3-30.18C80,167.37,60,137.31,60,104a68,68,0,0,1,136,0C196,137.31,176,167.37,159.3,186.71Z"/></symbol>
<symbol id="i-phone" viewBox="0 0 256 256"><path d="M224,154.8l-47.09-21.11-.18-.08a19.94,19.94,0,0,0-19,1.75,13.08,13.08,0,0,0-1.12.84l-22.31,19c-13-7.05-26.43-20.37-33.49-33.21l19.06-22.66a11.76,11.76,0,0,0,.85-1.15,20,20,0,0,0,1.66-18.83,1.42,1.42,0,0,1-.08-.18L101.2,32A20.06,20.06,0,0,0,80.42,20.15,60.27,60.27,0,0,0,28,80c0,81.61,66.39,148,148,148a60.27,60.27,0,0,0,59.85-52.42A20.06,20.06,0,0,0,224,154.8ZM176,204A124.15,124.15,0,0,1,52,80,36.29,36.29,0,0,1,80.48,44.46l18.82,42L80.14,109.28a12,12,0,0,0-.86,1.16A20,20,0,0,0,78,130.08c9.42,19.28,28.83,38.56,48.31,48A20,20,0,0,0,146,176.63a11.63,11.63,0,0,0,1.11-.85l22.43-19.07,42,18.81A36.29,36.29,0,0,1,176,204Z"/></symbol>
<symbol id="i-envelope-simple" viewBox="0 0 256 256"><path d="M224,44H32A12,12,0,0,0,20,56V192a20,20,0,0,0,20,20H216a20,20,0,0,0,20-20V56A12,12,0,0,0,224,44ZM193.15,68,128,127.72,62.85,68ZM44,188V83.28l75.89,69.57a12,12,0,0,0,16.22,0L212,83.28V188Z"/></symbol>
<symbol id="i-arrow-right" viewBox="0 0 256 256"><path d="M224.49,136.49l-72,72a12,12,0,0,1-17-17L187,140H40a12,12,0,0,1,0-24H187L135.51,64.48a12,12,0,0,1,17-17l72,72A12,12,0,0,1,224.49,136.49Z"/></symbol>
<symbol id="i-list" viewBox="0 0 256 256"><path d="M228,128a12,12,0,0,1-12,12H40a12,12,0,0,1,0-24H216A12,12,0,0,1,228,128ZM40,76H216a12,12,0,0,0,0-24H40a12,12,0,0,0,0,24ZM216,180H40a12,12,0,0,0,0,24H216a12,12,0,0,0,0-24Z"/></symbol>
<symbol id="i-x" viewBox="0 0 256 256"><path d="M208.49,191.51a12,12,0,0,1-17,17L128,145,64.49,208.49a12,12,0,0,1-17-17L111,128,47.51,64.49a12,12,0,0,1,17-17L128,111l63.51-63.52a12,12,0,0,1,17,17L145,128Z"/></symbol>
<symbol id="i-fork-knife" viewBox="0 0 256 256"><path d="M68,88V40a12,12,0,0,1,24,0V88a12,12,0,0,1-24,0ZM220,40V224a12,12,0,0,1-24,0V180H152a12,12,0,0,1-12-12,273.23,273.23,0,0,1,7.33-57.82C157.42,68.42,176.76,40.33,203.27,29A12,12,0,0,1,220,40ZM196,62.92C182.6,77,175,98,170.77,115.38A254.41,254.41,0,0,0,164.55,156H196ZM128,39A12,12,0,0,0,104,41l4,47.46a28,28,0,0,1-56,0L56,41A12,12,0,1,0,32,39L28,87c0,.34,0,.67,0,1a52.1,52.1,0,0,0,40,50.59V224a12,12,0,0,0,24,0V138.59A52.1,52.1,0,0,0,132,88c0-.33,0-.66,0-1Z"/></symbol>
<symbol id="i-truck" viewBox="0 0 256 256"><path d="M255.14,115.54l-14-35A19.89,19.89,0,0,0,222.58,68H196V64a12,12,0,0,0-12-12H32A20,20,0,0,0,12,72V184a20,20,0,0,0,20,20H46.06a36,36,0,0,0,67.88,0h44.12a36,36,0,0,0,67.88,0H236a20,20,0,0,0,20-20V120A21.7,21.7,0,0,0,255.14,115.54ZM196,92h23.88l6.4,16H196ZM80,204a12,12,0,1,1,12-12A12,12,0,0,1,80,204Zm92-41.92A36.32,36.32,0,0,0,158.06,180H113.94a36,36,0,0,0-67.88,0H36V140H172ZM172,116H36V76H172Zm20,88a12,12,0,1,1,12-12A12,12,0,0,1,192,204Zm40-24h-6.06A36.09,36.09,0,0,0,196,156.23V132h36Z"/></symbol>
<symbol id="i-certificate" viewBox="0 0 256 256"><path d="M128,140a12,12,0,0,1-12,12H72a12,12,0,0,1,0-24h44A12,12,0,0,1,128,140ZM116,88H72a12,12,0,0,0,0,24h44a12,12,0,0,0,0-24Zm120,79.14V228a12,12,0,0,1-17.95,10.42L196,225.82,174,238.42A12,12,0,0,1,156,228V204H40a20,20,0,0,1-20-20V56A20,20,0,0,1,40,36H216a20,20,0,0,1,20,20V88.86a55.87,55.87,0,0,1,0,78.28ZM196,160a32,32,0,1,0-32-32A32,32,0,0,0,196,160Zm-40,20V167.14a56,56,0,0,1,56-92.8V60H44V180Zm56,27.32V181.66a55.87,55.87,0,0,1-32,0v25.66l10.05-5.74a12,12,0,0,1,11.9,0Z"/></symbol>
<symbol id="i-users-three" viewBox="0 0 256 256"><path d="M164.38,181.1a52,52,0,1,0-72.76,0,75.89,75.89,0,0,0-30,28.89,12,12,0,0,0,20.78,12,53,53,0,0,1,91.22,0,12,12,0,1,0,20.78-12A75.89,75.89,0,0,0,164.38,181.1ZM100,144a28,28,0,1,1,28,28A28,28,0,0,1,100,144Zm147.21,9.59a12,12,0,0,1-16.81-2.39c-8.33-11.09-19.85-19.59-29.33-21.64a12,12,0,0,1-1.82-22.91,20,20,0,1,0-24.78-28.3,12,12,0,1,1-21-11.6,44,44,0,1,1,73.28,48.35,92.18,92.18,0,0,1,22.85,21.69A12,12,0,0,1,247.21,153.59Zm-192.28-24c-9.48,2.05-21,10.55-29.33,21.65A12,12,0,0,1,6.41,136.79,92.37,92.37,0,0,1,29.26,115.1a44,44,0,1,1,73.28-48.35,12,12,0,1,1-21,11.6,20,20,0,1,0-24.78,28.3,12,12,0,0,1-1.82,22.91Z"/></symbol>
<symbol id="i-caret-right" viewBox="0 0 256 256"><path d="M184.49,136.49l-80,80a12,12,0,0,1-17-17L159,128,87.51,56.49a12,12,0,1,1,17-17l80,80A12,12,0,0,1,184.49,136.49Z"/></symbol>
<symbol id="i-facebook-logo" viewBox="0 0 256 256"><path d="M128,20A108,108,0,1,0,236,128,108.12,108.12,0,0,0,128,20Zm12,191.13V156h20a12,12,0,0,0,0-24H140V112a12,12,0,0,1,12-12h16a12,12,0,0,0,0-24H152a36,36,0,0,0-36,36v20H96a12,12,0,0,0,0,24h20v55.13a84,84,0,1,1,24,0Z"/></symbol>
</svg>